<?xml version="1.0" encoding="UTF-8"?><svg id="Layer_1" xmlns="http://www.w3.org/2000/svg" xmlns:xlink="http://www.w3.org/1999/xlink" viewBox="0 0 407 406"><defs><style>.cls-1{fill:#16659d;}.cls-2{fill:#ffc01d;}.cls-3{fill:#8df9ec;}.cls-4{filter:url(#outer-glow-2);}.cls-5{fill:#1593bd;}</style><filter id="outer-glow-2" filterUnits="userSpaceOnUse"><feOffset dx="0" dy="0"/><feGaussianBlur result="blur" stdDeviation="15.8"/><feFlood flood-color="#f9f9fc" flood-opacity=".75"/><feComposite in2="blur" operator="in"/><feComposite in="SourceGraphic"/></filter></defs><circle class="cls-1" cx="203.47" cy="202.99" r="203.07"/><g><g><rect class="cls-5" x="90.24" y="44.03" width="2.94" height="57.82"/><rect class="cls-5" x="205.88" y="15.61" width="2.94" height="57.82"/><rect class="cls-5" x="126.5" y="56.77" width="2.94" height="29.4" rx="1.47" ry="1.47"/><rect class="cls-5" x="177.46" y="15.61" width="2.94" height="57.82"/><rect class="cls-5" x="163.12" y="103.06" width="57.82" height="2.94"/><rect class="cls-5" x="182.36" y="160.65" width="2.94" height="57.82"/><rect class="cls-5" x="33.4" y="98.91" width="63.7" height="2.94"/><rect class="cls-5" x="266.65" y="42.05" width="57.82" height="2.94"/><rect class="cls-5" x="266.65" y="67.55" width="57.82" height="2.94"/><rect class="cls-5" x="5.96" y="157.71" width="57.82" height="2.94"/><rect class="cls-5" x="45.16" y="181.23" width="2.94" height="57.82"/><rect class="cls-5" x="33.4" y="241.99" width="2.94" height="57.82"/><rect class="cls-5" x="288.21" y="113.61" width="75.46" height="2.94"/><rect class="cls-5" x="349.95" y="112.61" width="2.94" height="57.82"/><rect class="cls-5" x="118.66" y="289.04" width="2.94" height="57.82"/><rect class="cls-5" x="174.52" y="260.61" width="28.42" height="2.94"/><rect class="cls-5" x="73.58" y="345.88" width="57.82" height="2.94"/><rect class="cls-5" x="173.54" y="345.88" width="2.94" height="57.82"/><rect class="cls-5" x="172.56" y="317.46" width="57.82" height="2.94"/><rect class="cls-5" x="173.54" y="385.06" width="57.82" height="2.94"/><rect class="cls-5" x="256.85" y="316.48" width="2.94" height="57.82"/><rect class="cls-5" x="237.24" y="314.52" width="57.82" height="2.94"/><rect class="cls-5" x="266.65" y="342.94" width="57.82" height="2.94"/><rect class="cls-5" x="332.31" y="168.47" width="57.82" height="2.94"/><rect class="cls-5" x="334.27" y="224.33" width="57.82" height="2.94"/><rect class="cls-5" x="351.91" y="281.2" width="28.42" height="2.94"/><rect class="cls-5" x="67.7" y="63.61" width="2.94" height="57.82"/></g><g><rect class="cls-2" x="288.21" y="112.61" width="75.46" height="2.94"/><rect class="cls-2" x="147.57" y="64.1" width="2.94" height="57.82"/><rect class="cls-2" x="118.66" y="300.78" width="57.82" height="2.94"/><rect class="cls-2" x="90.64" y="97.87" width="57.82" height="2.94"/><rect class="cls-2" x="91.22" y="53.81" width="57.82" height="2.94"/><rect class="cls-2" x="177.46" y="68.51" width="2.94" height="57.82"/><rect class="cls-2" x="206.86" y="103.79" width="2.94" height="57.82"/><rect class="cls-2" x="184.32" y="158.67" width="22.54" height="2.94"/><rect class="cls-2" x="31.44" y="97.91" width="2.94" height="57.82"/><rect class="cls-2" x="205.88" y="32.23" width="57.82" height="2.94"/><rect class="cls-2" x="263.71" y="33.23" width="2.94" height="37.24"/><rect class="cls-2" x="288.21" y="68.51" width="2.94" height="57.82"/><rect class="cls-2" x="17.72" y="177.29" width="57.82" height="2.94"/><rect class="cls-2" x="4" y="238.05" width="57.82" height="2.94"/><rect class="cls-2" x="32.42" y="261.57" width="57.82" height="2.94"/><rect class="cls-2" x="361.71" y="93.01" width="2.94" height="57.82"/><rect class="cls-2" x="333.29" y="68.51" width="2.94" height="57.82"/><rect class="cls-2" x="155.9" y="216.49" width="36.26" height="2.94"/><rect class="cls-2" x="173.54" y="217.47" width="3.92" height="45.08"/><rect class="cls-2" x="32.42" y="298.82" width="57.82" height="2.94"/><rect class="cls-2" x="61.82" y="273.33" width="2.94" height="57.82"/><rect class="cls-2" x="62.8" y="315.48" width="57.82" height="2.94"/><rect class="cls-2" x="152.34" y="61.29" width="57.82" height="2.94"/><rect class="cls-2" x="200" y="260.59" width="2.94" height="57.82"/><rect class="cls-2" x="173.54" y="302.74" width="2.94" height="57.82"/><rect class="cls-2" x="118.66" y="359.58" width="57.82" height="2.94"/><rect class="cls-2" x="228.42" y="280.2" width="2.94" height="57.82"/><rect class="cls-2" x="200.98" y="336.06" width="57.82" height="2.94"/><rect class="cls-2" x="219.6" y="337.04" width="2.94" height="57.82"/><rect class="cls-2" x="293.11" y="286.08" width="2.94" height="57.82"/><rect class="cls-2" x="322.51" y="298.82" width="2.94" height="57.82"/><rect class="cls-2" x="359.75" y="168.47" width="2.94" height="57.82"/><rect class="cls-2" x="377.39" y="224.33" width="2.94" height="57.82"/><rect class="cls-2" x="302.91" y="307.64" width="57.82" height="2.94"/><rect class="cls-2" x="349.95" y="281.18" width="2.94" height="57.82"/></g></g><g class="cls-4"><path class="cls-3" d="m112.86,194.43l-.19.37c-.25-.12-.78-.65-1.59-1.59-.81-.93-1.52-1.34-2.15-1.21-1,0-1.99.37-2.99,1.12-.37-.99-1.31-1.99-2.8-2.99-.25-.12-.5-.19-.75-.19-.5,0-.97.28-1.4.84-.44.56-.84,1.03-1.21,1.4-.37-.75-1.25-1.43-2.61-2.05-.87.12-1.8.75-2.8,1.87.12.87-.41,1.37-1.59,1.49-1.18.13-1.84.56-1.96,1.31l-.56,2.05c-.87-.62-.87-1.99,0-4.1.25-.62.96-1.06,2.15-1.31,1.18-.25,1.71-.87,1.59-1.87.99-1.24,2.3-1.49,3.92-.75.37.5.75.75,1.12.75.25,0,.68-.28,1.31-.84.62-.56,1.18-.71,1.68-.47,1.37-.25,2.8.69,4.29,2.8.87-.75,2.11-1.06,3.73-.93-2.99-7.09-7.28-13.74-12.88-19.97-.75.62-2.18.69-4.29.19-.87-.12-1.4-.84-1.59-2.15s-.53-1.96-1.03-1.96h-1.49c-1.74,0-2.86-.62-3.36-1.85l-.56-1.29c-.12-.49-.06-.92.19-1.29-.87-.12-1.77-.31-2.71-.55-.93-.24-1.52-.8-1.77-1.66.25-.49.37-.92.37-1.29,0-.74-.78-1.48-2.33-2.21-1.56-.74-2.27-1.66-2.15-2.77-.13-.73.34-1.29,1.4-1.66,1.06-.37,1.65-.68,1.77-.92.99-.73,1.55-1.78,1.68-3.13-.62-2.21-1.99-4.67-4.11-7.38-1.87-2.21-3.73-4.49-5.6-6.83-2.74,1.49-5.41,2.99-8.02,4.48-3.48,1.74-6.41,2.61-8.77,2.61-2.61,0-5.04-.93-7.28-2.8-3.11-2.49-4.67-5.78-4.67-9.89,0-1.37.25-2.73.75-4.11.25-1.99,1.24-3.67,2.99-5.04,1.74-1.37,3.61-2.05,5.6-2.05.5,0,1.06.06,1.68.19-3.11.5-5.6,2.12-7.46,4.85-1.74,3.98-2.11,7.28-1.12,9.89,1.49,3.98,4.04,6.22,7.65,6.72.99.25,1.93.37,2.8.37,2.36,0,4.97-.81,7.84-2.43,2.36-1.49,4.79-2.99,7.28-4.48,1.12,0,2.21.62,3.27,1.87,1.06,1.25,2.02,2.43,2.89,3.55,1.12,1.74,2.3,3.55,3.55,5.41,1.24,1.87,1.87,3.61,1.87,5.22,0,1.25-.44,2.49-1.31,3.73-.25.37-.84.84-1.77,1.4-.93.56-1.28,1.15-1.03,1.77.12.62.84,1.03,2.15,1.21,1.31.19,1.96.53,1.96,1.03,0,.37-.25.87-.75,1.49-.13,1.12.37,1.87,1.49,2.24.37.25.87.25,1.49,0,.75-.37,1.18-.56,1.31-.56.37,0,.68.31.93.93l-.56,1.49c-.13.62-.06,1.18.19,1.68.37,1,1.74,1.25,4.1.75.5-.75.93-.93,1.31-.56h.37c-.25,1.37-.19,2.61.19,3.73,1.12,1.49,2.3,1.87,3.55,1.12.87-.5,1.49-.68,1.87-.56,8.33,9.08,13.31,17.67,14.93,25.75Zm89.19-67.92c.12.5-.56,1.12-2.05,1.87l-13.99.56c-9.83,8.34-18.79,22.83-26.87,43.48-4.85,12.32-8.15,21.34-9.89,27.06-2.99,10.45-4.48,20.09-4.48,28.92,0,5.85.81,13.13,2.43,21.83,2.73,14.06,4.11,21.27,4.11,21.64l.56.56c9.2,0,17.97.87,26.31,2.61.62,0,.93.5.93,1.49l-.56.56c-12.81-2.11-26.68-3.17-41.61-3.17-16.3,0-32.03,1.25-47.21,3.73-.62-.37-.75-.87-.37-1.49l.56-.56c10.45-1.99,21.15-3.11,32.09-3.36l.93-.93,5.22-39.19c.25-2.36.37-4.73.37-7.09,0-8.71-2.36-18.47-7.09-29.3l-17.35-29.86c-10.08-17.04-19.1-29.36-27.06-36.95l-1.31-.56h-21.46c-.75,0-1.06-.64-.93-1.92l1.12-1.07,96.66,1.87,41.8-.93c4.1-.5,7.15-.43,9.14.19Zm-81.17,115.88c-.13.37-.69.56-1.68.56-.75-.99-1.62-1.37-2.61-1.12-.87.87-1.06,1.62-.56,2.24.12.25.62.5,1.49.75.5.25.68.69.56,1.31-.25.37-.72.44-1.4.19-.69-.25-1.15-.12-1.4.37-.75.75-.87,1.62-.37,2.61.5.87,1.55,1.25,3.17,1.12,0,.37-.25.9-.75,1.59-.5.68-.75,1.15-.75,1.4,0,.5.37.93,1.12,1.31h1.87c-.25,3.61-2.12,6.1-5.6,7.46-1,.37-2.05.75-3.17,1.12s-1.87,1.06-2.24,2.05c.62,0,1.43.44,2.43,1.31l-.37.93-17.17-1.68c-1.87.25-3.05.93-3.54,2.05,0,.87.56,1.49,1.68,1.87,1.12.37,1.62,1,1.49,1.87-5.1,1-8.4,3.05-9.89,6.16-.75,2.61-.75,4.54,0,5.78,1.12,1.87,2.99,3.05,5.6,3.55,2.11.25,4.79-1.87,8.02-6.34-.13,3.73-1.62,6.09-4.48,7.09-4.85.25-7.71,0-8.58-.75-2.74-2.49-3.42-5.85-2.05-10.08,1.12-2.74,3.67-4.85,7.65-6.34-1.49-1.62-1.68-3.17-.56-4.67,1.74-1.12,3.85-1.68,6.34-1.68,1.37,0,3.36.22,5.97.65,2.61.44,4.48.72,5.6.84.37-1.87,2.15-3.42,5.32-4.67,3.17-1.24,5.01-2.92,5.5-5.04-.62-.37-1.37-1.06-2.24-2.05-.12-.62-.06-1.37.19-2.24-.75-.5-1.62-1.49-2.61-2.99-.12-.37-.19-.68-.19-.93,0-.62.34-1.27,1.03-1.96.68-.68,1.03-1.21,1.03-1.59s-.13-.68-.37-.93c-.25-1.24.25-2.17,1.49-2.8.87,0,2.11-.31,3.73-.93-.25-3.61-2.49-7.15-6.72-10.64-5.22-4.48-8.34-7.59-9.33-9.33-.25-.87-.53-1.74-.84-2.61-.31-.87-1.03-1.18-2.15-.93-.62-.25-1.18-1.24-1.68-2.99-.25-1.37-1.12-1.87-2.61-1.49-1.25-.87-1.49-2.3-.75-4.29,0-.25.37-.75,1.12-1.49-1-1.49-1.18-2.73-.56-3.73,1.12-.25,1.68-.87,1.68-1.87,0-.25-.06-.62-.19-1.12-.13-.5-.19-.87-.19-1.12,0-.99.62-1.62,1.87-1.87.5-.25,1.06-.37,1.68-.37s1.18.13,1.68.37c2.24,1.37,4.6,4.6,7.09,9.7,1.12,1.49,2.86,2.43,5.22,2.8,1.49-.25,2.73-1.18,3.73-2.8.5-2.36.62-3.92.37-4.67,1.12.75,1.55,1.99,1.31,3.73-.25,2.49-1.37,4.1-3.36,4.85-2.74.87-5.16.31-7.28-1.68-.5-.5-1.87-2.61-4.11-6.34-1.62-2.61-3.55-4.1-5.78-4.48-.75.48-1.06,1.15-.93,1.99.25.48.81.91,1.68,1.27.87.36,1.37.85,1.49,1.45-1.12-.12-2.55.18-4.29.91-.25,1.45.68,2.24,2.8,2.36.12.36.19.6.19.73,0,.36-.44.54-1.31.54s-1.43.18-1.68.55c-.25.36-.62.97-1.12,1.81,0,.24.37.73,1.12,1.45h4.67c0,.5-.34,1.15-1.03,1.96-.69.81-1.03,1.34-1.03,1.59,0,.37.37.75,1.12,1.12.37.25.75.25,1.12,0,.62-.37.99-.56,1.12-.56.25,0,.43.19.56.56.25,3.61,3.14,7.65,8.68,12.13,5.53,4.48,8.3,8.52,8.3,12.13,0,.87-.13,1.87-.37,2.99Zm41.05-112.14h-50.38c0,2.25.34,4.72,1.03,7.41.68,2.69,1.4,5.28,2.15,7.78,7.46,24.5,16.98,46.18,28.55,65.05.37-.99.93-2.61,1.68-4.85l11.01-34.33c4.48-14.3,6.47-27.99,5.97-41.05Zm-2.61,4.67c-1.24,10.82-4.42,18.72-9.52,23.7-2.61,2.74-5.22,5.54-7.84,8.4-3.24,3.24-5.1,6.28-5.6,9.14,0,1.87.87,3.3,2.61,4.29,3.48,0,5.78-1.49,6.9-4.48v-3.17c1.12-.5,2.43.25,3.92,2.24.62,2.36.53,4.04-.28,5.04-.81,1-1.71,1.68-2.71,2.05,1.99,1.37,3.11,3.11,3.36,5.22-.37.75-1.46,1.15-3.27,1.21-1.8.06-2.71.34-2.71.84,0,.37.37.93,1.12,1.68.62,2.12-.31,4.04-2.8,5.78l-3.55,1.12c.5-2.36-.44-5.04-2.8-8.02-2.61-3.48-4.04-6.09-4.29-7.84-.75-5.1.31-9.2,3.17-12.32,3.73-3.61,7.46-7.28,11.2-11.01,4.23-4.6,6.84-8.96,7.84-13.06l-.18-.19c-9.36,7.59-17.18,11.38-23.46,11.38-1.6,0-3.14-.19-4.62-.56-5.92-2.36-8.69-6.72-8.31-13.06.36-5.47,2.44-9.2,6.22-11.2,1.1-.62,2.2-.93,3.29-.93,1.83,0,4.14,1.21,6.95,3.64,2.8,2.43,5,3.64,6.58,3.64,1.34,0,2.74-.62,4.2-1.87-.12,1.25-.31,2.55-.55,3.92-.25,1.37-.99,2.3-2.22,2.8-.5.13-1.36.19-2.59.19-.12,1.49-.8,3.61-2.03,6.34-1.6,0-3.2-.93-4.81-2.8-.99,1.37-2.28,2.12-3.88,2.24-1.85-.12-3.08-1.31-3.7-3.55,1.99-.25,3.29-.87,3.92-1.87.25-.62.37-1.24.37-1.87,0-.75-.13-1.37-.37-1.87-1.37-1.62-2.68-2.43-3.92-2.43-1.62-.12-2.8.75-3.55,2.61-1.62,4.48-1.43,7.9.56,10.26,2.73,3.24,7.28,4.23,13.62,2.99,9.33-2.99,16.98-9.39,22.95-19.22.25,0,.5.19.75.56Zm-10.08,17.17c-6.22,8.34-12.19,13.5-17.91,15.49-2.49.13-4.42-.93-5.78-3.17-.37-.99.37-2.3,2.24-3.92.75-.62,2.02-.93,3.83-.93s2.95-.06,3.45-.19c5.47-1.74,10.2-4.17,14.18-7.28Zm37.88,127.07c-1,3.61-2.49,5.6-4.48,5.97-4.98.87-9.02-.31-12.13-3.55-.12-.37,0-.81.37-1.31,4.85,2.36,7.96,3.54,9.33,3.54.99,0,1.99-.25,2.99-.75,2.11-1.49,2.73-3.42,1.87-5.78-1.49-2.49-4.36-4.23-8.58-5.23-5.1-1.12-8.34-2.24-9.7-3.36.12-.75.78-1.43,1.96-2.05,1.18-.62,1.96-1.18,2.33-1.68.12-.37-.06-1.06-.56-2.05-.62,0-1.52.28-2.71.84-1.18.56-2.02.84-2.52.84s-.93-.12-1.31-.37c0-.75.59-1.21,1.77-1.4,1.18-.19,1.65-.78,1.4-1.77-.5-.99-1.31-1.37-2.43-1.12l-2.8.56c-1.49.75-2.43,1-2.8.75-.25-.87.25-1.55,1.49-2.05,1.24-.5,1.74-1.24,1.49-2.24-.75-.99-2.02-1.12-3.83-.37-1.8.75-3.08.62-3.83-.37.99-.25,2.11-1.06,3.36-2.43.25-.62-.13-1.37-1.12-2.24-.75-.37-1.71-.12-2.89.75-1.18.87-1.9,1.31-2.15,1.31-.62,0-1.12-.68-1.49-2.05-2.61-10.08-3.92-17.85-3.92-23.32,0-1.49.06-2.99.19-4.48.75,4.73,1.43,9.39,2.05,13.99.87,5.72,2.11,10.26,3.73,13.62.37-.12.99-.47,1.87-1.03.87-.56,1.62-.84,2.24-.84.37,0,.81.13,1.31.37.99.25,1.68,1.21,2.05,2.89.37,1.68,1.31,2.33,2.8,1.96.62.13,1.24.93,1.87,2.43.37,1,1.18,1.31,2.43.93.5,0,.9.25,1.21.75.31.5.59.93.84,1.31,0,.75.56,1.18,1.68,1.31,1.12.12,1.77.47,1.96,1.03s.28,1.03.28,1.4c0,1.49-.87,3.05-2.61,4.67,3.48.87,6.97,1.8,10.45,2.8,3.85,1.62,6.03,4.23,6.53,7.84Z"/><path class="cls-3" d="m359.73,261.79c.12.25-.37,1.74-1.49,4.48-1.12,1.12-2.77,2.46-4.94,4.01-2.18,1.56-4.32,2.58-6.44,3.08-1.49.12-3.73,0-6.72-.37-.13.12-.47.12-1.03,0-.56-.12-.96-.12-1.21,0-.87-.5-1.37-.62-1.49-.37l-.75-.75-.37.37c-6.1-2.49-11.94-8.83-17.54-19.03.25-.12.12-.62-.37-1.49-4.98,6.72-10.45,11.82-16.42,15.3-.62.62-2.74,1.87-6.34,3.73-.37-.12-1.62.37-3.73,1.49l-.37-.37-.75.75-.37-.37-.75.75-.37-.37-.75.75c-.75-.25-1.62,0-2.61.75-.25-.37-.56-.43-.93-.19l-.93.67c-.87.3-2.36.45-4.48.45-7.09.62-12.69.5-16.79-.37-.87.12-2.12-.12-3.73-.75-.75-.25-1.87-.37-3.36-.37l-5.22-2.24h-.37c-.25-.13-1.06-.51-2.43-1.15-.87-.51-1.56-.77-2.05-.77-1.74-1.28-4.48-2.81-8.21-4.6,0-.13-.12-.38-.37-.77h-.75c0-.12-.12-.37-.37-.74-.75-.5-1.87-1.12-3.36-1.86,0-.37-.25-.68-.75-.93-.5-.25-.75-.43-.75-.56-8.46-7.2-14.93-15.14-19.41-23.83.12-.5-.25-1.49-1.12-2.98-.25-1.12-.87-2.61-1.87-4.47-.37-.74-.5-1.74-.37-2.98-.25-.99-.81-2.36-1.68-4.1.5-.24.62-.56.37-.93-.37-.62-.53-.99-.47-1.12.06-.12-.16-.93-.65-2.42v-3.35c-.5-8.69-.25-14.34.75-16.95.25-.87.37-2.36.37-4.47.37-.25.68-1.24.93-2.98.37-.12.59-.46.65-1.02.06-.56.22-.96.47-1.21l-.37-.37.75-.74-.37-.37.75-.74-.37-.37.75-.74c.37-.75.62-1.86.75-3.35.99-.62,1.37-1.49,1.12-2.61,1.74-2.98,4.23-7.57,7.46-13.78.12.13.37,0,.75-.37v-.75c.12.13.37,0,.75-.37v-.75c.12.13.4-.06.84-.56.43-.5,1.03-1.55,1.77-3.17.12.13.37,0,.75-.37v-.74c1.62-1.86,2.99-3.48,4.1-4.84,1.99-2.61,8.02-9.68,18.1-21.23,7.71-8.69,13.12-15.89,16.23-21.6l-.37-.37c.12,0,.37-.12.75-.37-.13-.5.12-1.3.75-2.42.62-1.12.99-1.8,1.12-2.05l-.37-.37c.37-.12.59-.5.65-1.12.06-.62.22-.99.47-1.12.37-.5.37-1.24,0-2.24l.56-2.61c.25-.99.06-1.74-.56-2.23.25-.37.37-.62.37-.75l-.75-.74c.12-.5-.25-1.46-1.12-2.89-.87-1.43-2.61-2.95-5.22-4.56-.62-.37-1.49-.37-2.61,0-.37-.37-.75-.56-1.12-.56s-.87.25-1.49.75c-.62.5-1,.81-1.12.93-.87.37-1.62,1.99-2.24,4.85.5.87,1.03,1.74,1.59,2.61.56.87,1.4,1.25,2.52,1.12,1.62-.25,2.99-.99,4.11-2.24l.37,1.87-.37.37.37.37c-.87,1.99-2.74,3.61-5.6,4.85-1,.13-2.36,0-4.11-.37-1,.13-1.9-.19-2.71-.93-.81-.75-2.02-2.17-3.64-4.29-.13-.75-.13-1.87,0-3.36-.37-2.61.37-4.85,2.24-6.72,1.37-.37,2.49-1.12,3.36-2.24,1.24,0,2.49-.37,3.73-1.12.75.25,1.49.37,2.24.37.62,0,1.37-.12,2.24-.37l-1.49-1.12h-5.6l-.75.75-.37-.37-.75.75-.37-.37c-.12,0-3.24,2.49-9.33,7.46-.87-.12-1.49.12-1.87.75-1,.13-2.36,0-4.11-.37l-.37.37c-.87-.75-1.74-2.24-2.61-4.48-.12-3.48,1.87-6.22,5.97-8.21l.37.37.75-.75.37.37.75-.75c.75,0,1.99-.12,3.73-.37,1.24,0,3.11-.12,5.6-.37,1.87.5,3.36.75,4.48.75.75.62,1.62.87,2.61.75,1.12,1,2.24,1.37,3.36,1.12-.75-.99-1.87-1.74-3.36-2.24l-.37-.37-.37.37-1.49-1.12-.37.37-.75-.75-.37.37-.75-.75-.37.37c-.12-.5-.5-.78-1.12-.84-.62-.06-1-.15-1.12-.28-.75-.25-1.87-.37-3.36-.37-.37-.5-.9-.68-1.59-.56-.69.13-1.15-.06-1.4-.56-.5-.37-1.25-.37-2.24,0-1.12-.37-2.86-.99-5.22-1.87l-.37.37-.75-.75-.37.37-.75-.75-.37.37c-4.73-2.11-7.34-4.85-7.84-8.21,0-1.12.37-2.92,1.12-5.41.5-.87,2.11-2.24,4.85-4.11.75,0,1.74.13,2.99.37-.87,1-1,2.24-.37,3.73-.25.5-.13,1.12.37,1.87.5.75.75,1.25.75,1.49,4.48,4.36,10.82,8.27,19.03,11.76,1.74,1.49,3.61,2.61,5.6,3.36-.12.12.09.44.65.93.56.5,1.83,1.31,3.83,2.43,1.24.87,2.49,2.3,3.73,4.29.99,1.49,1.99,3.05,2.99,4.67l-.37.37.75.75-.37.37.75.75c-.25.12-.25.44,0,.93.25.5.25.81,0,.93.37.62.53,1.62.47,2.99-.06,1.37.03,2.36.28,2.99-.62,2.36-.87,4.23-.75,5.6-.12.62-.5,1.62-1.12,2.99l.37.37c-.37.13-.59.47-.65,1.03-.06.56-.22.97-.47,1.21v.37l-.6.75c-.2.62-.3,1.49-.3,2.61l-.6.75.37.37c-.25.75-.87,1.87-1.87,3.36l-1.12,2.61c-1.62,3.86-3.86,8.34-6.72,13.44-4.73,8.34-7.09,12.57-7.09,12.69l.37.37c-.12.12-1.74,2.99-4.85,8.58,0,.5-.28,1.28-.84,2.33-.56,1.06-.84,1.71-.84,1.96s-.22.72-.65,1.4c-.44.69-.53,1.15-.28,1.4l-1.12,1.49.37.37-1.12,1.49c-.37.75-.62,1.87-.75,3.36l-.75.75.37.37-.75.75.37.37-.75.75.37.37-.75.75c.12.25.06.75-.19,1.49-.25.75-.31,1.25-.19,1.49-.5.5-.78,1.15-.84,1.96-.06.81-.28,1.4-.65,1.77-.25.87-.37,2.12-.37,3.73-.5.87-.62,1.37-.37,1.49-.5.75-.78,1.8-.84,3.17-.06,1.37-.28,2.3-.65,2.8-.37.87-.37,1.99,0,3.36-.62,1.12-.93,2.43-.93,3.92l.19,3.92c-.87,3.61-.75,10.39.37,20.34-.13.62,0,2.24.37,4.85l.37.37c-.25.5-.22,1.15.09,1.96.31.81.4,1.52.28,2.15.25,1,.87,2.74,1.87,5.22l-.37.37.75.75c-.37.37-.25,1,.37,1.87l.37.37-.37.37.75.75c-.25.13-.12.62.37,1.49l.37.37c-.37.25-.28.72.28,1.4.56.69.71,1.21.47,1.59,6.84,13.19,14.68,21.65,23.51,25.38.12-.25.47-.19,1.03.19.56.37.96.44,1.21.19l.75.75,5.22,1.12c.62-.37,1.55-.43,2.8-.19,1.24.25,2.17.19,2.8-.19.87-.12,2.11-.12,3.73,0,.37-.12.87-.37,1.49-.75.5-.25,1.12-.25,1.87,0,4.85-1.24,9.83-5.1,14.93-11.57.5-.62.99-1.62,1.49-2.99l.37-.37c-.12-.37.06-1.06.56-2.05.5-.99.68-1.68.56-2.05l.75-.75c-.13-.25-.06-.75.19-1.49.25-.75.37-1.33.37-1.77s.31-1.33.93-2.71c0-.25.12-.93.37-2.05.12-.99.12-1.68,0-2.05.62-.62.87-1.37.75-2.24v-2.24c.5-.62.75-1.46.75-2.52s.12-1.83.37-2.33c.25-.87.25-2.11,0-3.73.33-.75.46-1.83.37-3.27-.08-1.43.04-2.46.37-3.08.37-1.99.37-4.85,0-8.58.99-2.24,1.29-5.57.89-9.98-.41-4.41-.33-7.62.23-9.61-.25-10.2-.37-16.67-.37-19.41-.13-.87-.37-5.23-.75-13.06.12-1.74-.25-4.35-1.12-7.84.37-.25.43-.62.19-1.12l-.56-1.12c.25-1.62-.12-3.11-1.12-4.48l.37-.37-.75-.75.37-.37-.75-.75.37-.37c-1.49-3.98-4.36-7.34-8.58-10.08l-.37.37-.75-.75c-1.12-.12-2.74,0-4.85.37-.37-.25-.62-.37-.75-.37l-.37.37c.5-.99,1.31-1.8,2.43-2.43,1.87-1.24,2.92-1.93,3.17-2.05.5-.25,1.12-.25,1.87,0,1.37-.37,2.8-.43,4.29-.19,1.37.13,2.67.31,3.92.56l.75.75c.25-.25.65-.19,1.21.19.56.37.9.44,1.03.19.62,1.74,1.74,1.74,3.36,0,.75-.5,1.74-1.37,2.99-2.61.37.13.99.03,1.87-.28.87-.31,1.49-.47,1.87-.47.62,0,1.12.25,1.49.75l.37-.37c1.37.87,3.36,2.24,5.97,4.1,1.99-2.24,4.85-3.98,8.58-5.22h6.34l2.99.75c1.37.62,3.11,1.74,5.22,3.36-.62,0-1.62.25-2.99.75-.25-.37-.56-.43-.93-.19-.5.37-.87.5-1.12.37-.25-.12-1.18.31-2.8,1.31l-.37-.37-2.99,2.24c-1.12.62-2.18,1.93-3.17,3.92-1.37,2.61-2.3,4.17-2.8,4.67l-.75,2.99-.37.37c-.13.75-.25,1.99-.37,3.73-.25.75-.75,3.73-1.49,8.96-.37,11.45-.37,28.43,0,50.94-.25.87-.25,2.12,0,3.73.4,1.87.46,3.11.2,3.73-.13,1.99.27,4.98,1.2,8.96,0,.75.13,2.74.4,5.97,0,.12.06.44.2.93.13.5.33,2.05.6,4.67l.4.37c-.25.25-.25.75,0,1.49.25.75.25,1.24,0,1.49,0,.75.37,1.99,1.12,3.73-.13.5-.03,1.18.28,2.05.31.87.34,1.56.09,2.05.37.87.87,2.24,1.49,4.11l-.37.37.75.75c-.25.12-.13.62.37,1.49l.37.37c-.12.37.37,1.62,1.49,3.73.12.12.37.37.75.75s.5.75.37,1.12c.75.25,1.59,1,2.52,2.24.93,1.25,1.83,1.87,2.71,1.87l1.12,1.12c.75.25,1.62.37,2.61.37,2.49,1,4.29,1,5.41,0l.37.37.75-.75c.5.62,1.12.37,1.87-.75,2.49-.99,4.23-2.73,5.22-5.22.25.25.5.37.75.37l.37-.37Zm-62.51-26.52c.75,2.35,1.12,4.83,1.12,7.42,0,6.43-2.24,11.88-6.72,16.33-5.48,3.34-10.33,5.01-14.55,5.01h-3.36c-.75-.37-1.87-.37-3.36,0-.12-.12-1.49-.62-4.1-1.49l-.37.37c-1.74-.87-3.61-1.8-5.6-2.8-1.99-.99-3.36-2.3-4.11-3.92,1.13.25,3.33,1.06,6.6,2.43,2.64,1.25,4.84,1.8,6.6,1.68,3.64,1.24,6.78,1.49,9.42.75l.38-.25c.88.08,2.01-.08,3.39-.5h.38c5.02-1.37,8.67-4.85,10.93-10.45l-.75-.37c.5-.99.75-2.05.75-3.17,0-2.11-.78-4.35-2.33-6.72-1.56-2.36-4.14-3.54-7.74-3.54l-.37.37c-.25-.25-1.12-.12-2.61.37-1.37.87-2.24,2.61-2.61,5.22.37,1.74,1.37,3.11,2.99,4.11.5.37,1.24.37,2.24,0l1.49.37.37-.37.37.37c-.87,1.99-2.99,3.11-6.34,3.36-3.61-.37-6.1-1.24-7.46-2.61-2.36-2.36-3.48-4.85-3.36-7.46.25-4.35,2.36-7.71,6.34-10.08l2.99-.75c1.87.25,4.6.37,8.21.37-4.6-1.74-8.83-1.99-12.69-.75l-.75.75-.37-.37c-2.24.5-5.22,2.61-8.96,6.34-3.36,3.24-6.41,4.85-9.14,4.85-.87,0-1.8-.12-2.8-.37-1.99-1.12-2.61-3.61-1.87-7.46,1.24-3.11,3.54-5.35,6.9-6.72,3.11-1,6.28-1.99,9.52-2.99-.25-.37-.62-.62-1.12-.75l-7.65.56c-3.11.25-5.54.06-7.28-.56-.75,0-1.68-.31-2.8-.93l-2.8-1.68c-2.37-1.99-3.55-4.17-3.55-6.53,0-.87.19-1.68.56-2.43.62-2.86,2.61-4.6,5.97-5.22.5-.12,1.24,0,2.24.37-.5.62-1.03,1.31-1.59,2.05-.56.75-.65,1.56-.28,2.43,2.11,1.74,4.97,2.68,8.58,2.8,3.23.13,6.47.19,9.7.19.75.37,1.8.56,3.17.56s2.43.31,3.17.93c.25-.25.62-.25,1.12,0,.62.37.99.62,1.12.75.87-.12,1.99.16,3.36.84,1.37.69,2.36,1.03,2.99,1.03,7.59,4.6,12.44,9.33,14.55,14.18h.37c0-.25.5,1.11,1.49,4.08Zm-2.99-81.15c.99,3.36,1.49,6.53,1.49,9.52,0,4.98-1.49,9.39-4.48,13.25-1.12,1.62-2.68,3.05-4.67,4.29-3.11,1.99-4.79,3.05-5.04,3.17l-.37-.37c-2.37,1.49-5.66,2.43-9.89,2.8-3.61.37-7.16.69-10.64.93-3.73-.37-7.09.37-10.08,2.24-1.49,1.25-2.12,2.61-1.87,4.11l2.61,2.61c-.5.37-1.06.56-1.68.56-.5,0-2.18-.68-5.04-2.05-.87-.37-1.59-1.03-2.15-1.96-.56-.93-1.09-1.9-1.59-2.89-.25-4.73,1.99-8.08,6.72-10.08,1.24-.12,3.11-.25,5.6-.37,2.24-.12,5.63.13,10.17.75,4.54.62,7.8.93,9.8.93,4.6,0,8.4-1.06,11.38-3.17-.62-.25-1.49-.09-2.61.47s-1.99.78-2.61.65c-10.33.13-17.17-.99-20.53-3.36l-.37.37c0-.12-.12-.37-.37-.75l-.37.37c-3.36-2.73-5.22-4.29-5.6-4.67-2.12-1.99-3.36-4.04-3.73-6.16-.12-1.74.99-3.48,3.36-5.22.12.25.5.37,1.12.37,1.49-.37,3.36.25,5.6,1.87,2.24,2.49,4.48,4.92,6.72,7.28,2.74,2.74,5.35,4.54,7.84,5.41.25-.12.65-.03,1.21.28.56.31.9.47,1.03.47,4.73,1,8.83.25,12.32-2.24-.5-.25-1.28-.12-2.33.37-1.06.5-1.77.75-2.15.75-7.71.75-13.31-1.87-16.79-7.84-.75-.87-1.06-2.05-.93-3.55.25-1.24.43-2.55.56-3.92.12-2.24,1.62-4.35,4.48-6.34.99-.5,2.05-.75,3.17-.75,1.87,0,4.17.75,6.9,2.24.37.37,1.43,1.87,3.17,4.48,1.24,1.87,2.67,2.86,4.29,2.99v.75c-.75.5-1.49.75-2.24.75-1.12,0-2.64-.62-4.57-1.87-1.93-1.24-3.27-1.87-4.01-1.87-1.37,0-2.49,1.12-3.36,3.36-.13.62,0,1.37.37,2.24-.5.75-.25,1.74.75,2.99.62.87,2.11,1.87,4.48,2.99.37-.37.99-.25,1.87.37,2.73-.37,4.67-.81,5.78-1.31,1.87-.75,3.29-2.05,4.29-3.92,2.36-4.1,2.49-8.21.37-12.32.25-.62.12-1.37-.37-2.24-.5-.87-1-1.74-1.49-2.61-3.36-4.85-9.33-7.46-17.91-7.84-3.36.13-8.46,2.12-15.3,5.97-.37-.87-.06-1.68.93-2.43.99-.75,1.93-1.43,2.8-2.05.75-.25,2.49-1.12,5.22-2.61l4.48-.75c2.11-.25,5.22,0,9.33.75.25-.25.65-.19,1.21.19s.9.56,1.03.56c2.73.62,5.41,2.36,8.02,5.22,2.24,2.49,3.79,5.1,4.67,7.84Zm7.84,46.28c-2.74,1.62-7.09,3.8-13.06,6.53,6.22,5.48,9.33,11.69,9.33,18.66-.25-1-1.87-3.36-4.85-7.09-7.09-7.21-17.04-11.57-29.86-13.06-1.99.13-3.11-.37-3.36-1.49-.12-.5,0-1.8.37-3.92.25-1.87.12-3.23-.37-4.11,2.74-.12,6.59-.87,11.57-2.24.5-.12,1.12-.12,1.87,0,2.36-.5,5.6-1.87,9.7-4.1l.37.37c1.62-.99,3.98-2.61,7.09-4.85,2.24-2.11,5.1-5.72,8.58-10.82-.37.5-.37,1.24,0,2.24,0,.13-.5,1.49-1.49,4.11,0,.13-.25,1.12-.75,2.99l-.37.37c-.37.75-.62,1.74-.75,2.99-2.49,3.98-4.6,6.84-6.34,8.58,2.74,1.25,6.84,2.86,12.32,4.85Zm-23.14,23.32l-4.22-.75-1.54-.75c-.64-.25-1.15-.12-1.54.37-.13-.12-2.05-.25-5.76-.37l6.53.31c.51,0,1.44.14,2.78.41,1.34.27,2.34.34,2.98.22.38.37.64.56.77.56Z"/></g></svg>